<mxfile host="65bd71144e">
    <diagram id="nrBDBl5QZCL25kcdMDwi" name="Página-1">
        <mxGraphModel dx="625" dy="216" grid="1" gridSize="10" guides="1" tooltips="1" connect="1" arrows="1" fold="1" page="1" pageScale="1" pageWidth="827" pageHeight="1169" math="0" shadow="0">
            <root>
                <mxCell id="0"/>
                <mxCell id="1" parent="0"/>
                <mxCell id="4" value="" style="edgeStyle=none;html=1;" edge="1" parent="1" source="2" target="3">
                    <mxGeometry relative="1" as="geometry"/>
                </mxCell>
                <mxCell id="2" value="INICIO" style="ellipse;whiteSpace=wrap;html=1;gradientColor=#9966FF;gradientDirection=radial;" vertex="1" parent="1">
                    <mxGeometry x="170" y="20" width="120" height="60" as="geometry"/>
                </mxCell>
                <mxCell id="6" style="edgeStyle=none;html=1;exitX=0.5;exitY=1;exitDx=0;exitDy=0;entryX=0.5;entryY=0;entryDx=0;entryDy=0;" edge="1" parent="1" source="3" target="5">
                    <mxGeometry relative="1" as="geometry"/>
                </mxCell>
                <mxCell id="8" value="" style="edgeStyle=none;html=1;" edge="1" parent="1" source="3" target="7">
                    <mxGeometry relative="1" as="geometry">
                        <Array as="points">
                            <mxPoint x="380" y="130"/>
                        </Array>
                    </mxGeometry>
                </mxCell>
                <mxCell id="3" value="múltiplos_7 = 0&lt;br&gt;múltiplos_9 = 0" style="whiteSpace=wrap;html=1;gradientColor=#333333;gradientDirection=radial;" vertex="1" parent="1">
                    <mxGeometry x="170" y="100" width="120" height="60" as="geometry"/>
                </mxCell>
                <mxCell id="12" value="" style="edgeStyle=none;html=1;" edge="1" parent="1" source="5" target="11">
                    <mxGeometry relative="1" as="geometry"/>
                </mxCell>
                <mxCell id="5" value="I = 1000, 5000" style="shape=hexagon;perimeter=hexagonPerimeter2;whiteSpace=wrap;html=1;fixedSize=1;gradientColor=#FF66FF;gradientDirection=radial;size=20;" vertex="1" parent="1">
                    <mxGeometry x="170" y="180" width="120" height="20" as="geometry"/>
                </mxCell>
                <mxCell id="10" value="" style="edgeStyle=none;html=1;exitX=0.51;exitY=0.83;exitDx=0;exitDy=0;exitPerimeter=0;" edge="1" parent="1" source="7" target="9">
                    <mxGeometry relative="1" as="geometry"/>
                </mxCell>
                <mxCell id="7" value="múltiplos_7, múltiplos_9" style="shape=document;whiteSpace=wrap;html=1;boundedLbl=1;gradientColor=#CCFFE6;gradientDirection=radial;" vertex="1" parent="1">
                    <mxGeometry x="320" y="150" width="120" height="80" as="geometry"/>
                </mxCell>
                <mxCell id="9" value="FIN" style="ellipse;whiteSpace=wrap;html=1;gradientColor=#006600;gradientDirection=radial;" vertex="1" parent="1">
                    <mxGeometry x="320" y="240" width="120" height="40" as="geometry"/>
                </mxCell>
                <mxCell id="14" value="" style="edgeStyle=none;html=1;" edge="1" parent="1" source="11" target="13">
                    <mxGeometry relative="1" as="geometry"/>
                </mxCell>
                <mxCell id="11" value="d = [ I/7 ]&lt;br&gt;r - I (7 * d)&amp;nbsp;" style="whiteSpace=wrap;html=1;gradientColor=#FFB366;gradientDirection=radial;" vertex="1" parent="1">
                    <mxGeometry x="170" y="220" width="120" height="60" as="geometry"/>
                </mxCell>
                <mxCell id="16" value="" style="edgeStyle=none;html=1;" edge="1" parent="1" source="13" target="15">
                    <mxGeometry relative="1" as="geometry">
                        <Array as="points">
                            <mxPoint x="354" y="340"/>
                        </Array>
                    </mxGeometry>
                </mxCell>
                <mxCell id="19" value="" style="edgeStyle=none;html=1;" edge="1" parent="1" source="13">
                    <mxGeometry relative="1" as="geometry">
                        <mxPoint x="220" y="460" as="targetPoint"/>
                        <Array as="points">
                            <mxPoint x="120" y="340"/>
                            <mxPoint x="120" y="460"/>
                        </Array>
                    </mxGeometry>
                </mxCell>
                <mxCell id="13" value="&amp;nbsp;r = 0" style="rhombus;whiteSpace=wrap;html=1;gradientColor=#0000FF;gradientDirection=radial;" vertex="1" parent="1">
                    <mxGeometry x="190" y="300" width="80" height="80" as="geometry"/>
                </mxCell>
                <mxCell id="21" style="edgeStyle=none;html=1;exitX=0.5;exitY=1;exitDx=0;exitDy=0;" edge="1" parent="1" source="15">
                    <mxGeometry relative="1" as="geometry">
                        <mxPoint x="240" y="460" as="targetPoint"/>
                        <Array as="points">
                            <mxPoint x="354" y="460"/>
                        </Array>
                    </mxGeometry>
                </mxCell>
                <mxCell id="15" value="múltiplos_7 = múltiplos_7+ 1" style="whiteSpace=wrap;html=1;gradientColor=#FF99CC;gradientDirection=radial;" vertex="1" parent="1">
                    <mxGeometry x="294" y="360" width="120" height="60" as="geometry"/>
                </mxCell>
                <mxCell id="17" value="V" style="text;html=1;align=center;verticalAlign=middle;resizable=0;points=[];autosize=1;strokeColor=none;fillColor=none;" vertex="1" parent="1">
                    <mxGeometry x="300" y="320" width="20" height="20" as="geometry"/>
                </mxCell>
                <mxCell id="18" value="d = [ I/9 ]&lt;br&gt;r - I (9 * d)&amp;nbsp;" style="whiteSpace=wrap;html=1;gradientColor=#66B2FF;gradientDirection=radial;" vertex="1" parent="1">
                    <mxGeometry x="174" y="490" width="120" height="60" as="geometry"/>
                </mxCell>
                <mxCell id="20" value="F" style="text;html=1;align=center;verticalAlign=middle;resizable=0;points=[];autosize=1;strokeColor=none;fillColor=none;" vertex="1" parent="1">
                    <mxGeometry x="150" y="320" width="20" height="20" as="geometry"/>
                </mxCell>
                <mxCell id="23" style="edgeStyle=none;html=1;exitX=0.5;exitY=1;exitDx=0;exitDy=0;" edge="1" parent="1" source="22">
                    <mxGeometry relative="1" as="geometry">
                        <mxPoint x="230" y="490" as="targetPoint"/>
                    </mxGeometry>
                </mxCell>
                <mxCell id="22" value="" style="ellipse;whiteSpace=wrap;html=1;aspect=fixed;" vertex="1" parent="1">
                    <mxGeometry x="224.38" y="458.75" width="11.25" height="11.25" as="geometry"/>
                </mxCell>
                <mxCell id="24" value="" style="edgeStyle=none;html=1;" edge="1" parent="1" target="27">
                    <mxGeometry relative="1" as="geometry">
                        <mxPoint x="230" y="550" as="sourcePoint"/>
                    </mxGeometry>
                </mxCell>
                <mxCell id="25" value="" style="edgeStyle=none;html=1;" edge="1" parent="1" source="27" target="29">
                    <mxGeometry relative="1" as="geometry">
                        <Array as="points">
                            <mxPoint x="354" y="610"/>
                        </Array>
                    </mxGeometry>
                </mxCell>
                <mxCell id="26" value="" style="edgeStyle=none;html=1;" edge="1" parent="1" source="27">
                    <mxGeometry relative="1" as="geometry">
                        <mxPoint x="220" y="730" as="targetPoint"/>
                        <Array as="points">
                            <mxPoint x="120" y="610"/>
                            <mxPoint x="120" y="730"/>
                        </Array>
                    </mxGeometry>
                </mxCell>
                <mxCell id="27" value="&amp;nbsp;r = 0" style="rhombus;whiteSpace=wrap;html=1;gradientColor=#FFCCCC;gradientDirection=radial;" vertex="1" parent="1">
                    <mxGeometry x="190" y="570" width="80" height="80" as="geometry"/>
                </mxCell>
                <mxCell id="28" style="edgeStyle=none;html=1;exitX=0.5;exitY=1;exitDx=0;exitDy=0;" edge="1" parent="1" source="29">
                    <mxGeometry relative="1" as="geometry">
                        <mxPoint x="240" y="730" as="targetPoint"/>
                        <Array as="points">
                            <mxPoint x="354" y="730"/>
                        </Array>
                    </mxGeometry>
                </mxCell>
                <mxCell id="29" value="múltiplos_9 = múltiplos_9+ 1" style="whiteSpace=wrap;html=1;gradientColor=#CC0066;gradientDirection=radial;fontStyle=1" vertex="1" parent="1">
                    <mxGeometry x="294" y="631" width="120" height="60" as="geometry"/>
                </mxCell>
                <mxCell id="30" value="V" style="text;html=1;align=center;verticalAlign=middle;resizable=0;points=[];autosize=1;strokeColor=none;fillColor=none;" vertex="1" parent="1">
                    <mxGeometry x="300" y="590" width="20" height="20" as="geometry"/>
                </mxCell>
                <mxCell id="32" value="F" style="text;html=1;align=center;verticalAlign=middle;resizable=0;points=[];autosize=1;strokeColor=none;fillColor=none;" vertex="1" parent="1">
                    <mxGeometry x="150" y="590" width="20" height="20" as="geometry"/>
                </mxCell>
                <mxCell id="34" style="edgeStyle=none;html=1;exitX=0.5;exitY=1;exitDx=0;exitDy=0;entryX=0;entryY=0.5;entryDx=0;entryDy=0;" edge="1" parent="1" source="33" target="5">
                    <mxGeometry relative="1" as="geometry">
                        <mxPoint x="150" y="240" as="targetPoint"/>
                        <Array as="points">
                            <mxPoint x="230" y="760"/>
                            <mxPoint x="90" y="760"/>
                            <mxPoint x="90" y="190"/>
                        </Array>
                    </mxGeometry>
                </mxCell>
                <mxCell id="33" value="" style="ellipse;whiteSpace=wrap;html=1;aspect=fixed;" vertex="1" parent="1">
                    <mxGeometry x="224.38" y="728.75" width="11.25" height="11.25" as="geometry"/>
                </mxCell>
            </root>
        </mxGraphModel>
    </diagram>
</mxfile>